<svg xmlns="http://www.w3.org/2000/svg" viewBox="0 0 800 800"><defs><style>.cls-1{fill:none;}.cls-2{fill:#4d4d4d;}.cls-3{fill:#ff9500;}.cls-4{fill:#1f6994;}</style></defs><g id="_800x800" data-name="800x800"><rect class="cls-1" width="800" height="800"/></g><g id="Logo"><path class="cls-2" d="M610.32,375c-.54-.61,2.8-4.17,7.52-11.26a117,117,0,0,0,14.9-32.28c1.09-3.58,2-7.4,2.88-11.41s1.58-8.22,2.17-12.62c1.19-8.79,1.9-18.3,2.26-28.42s.44-20.88.67-32.1.52-22.81.9-34.69c0-1.06.07-2.13.11-3.19l0-1.44h0l0,0-1.51-.05h-.7l-2,0-4,.09c-1.32,0-2.64,0-3.94.09l-3.92.19c-2.6.14-5.18.21-7.72.44-10.21.62-20,1.82-29.27,3.14l-6.86,1-6.65,1.19-3.25.58-3.19.66-6.23,1.28c-8.12,1.84-15.67,3.67-22.48,5.61-3.42,1-6.68,1.84-9.72,2.82s-6,1.77-8.62,2.68l-7.48,2.44c-2.28.79-4.38,1.5-6.27,2.12s-3.58,1.19-5,1.68-2.71.87-3.73,1.15c-2.05.56-3.21.71-3.36.41s.67-1.11,2.39-2.37c.86-.64,2-1.38,3.25-2.24s2.82-1.82,4.58-2.81,3.71-2.11,5.86-3.3,4.57-2.34,7.15-3.64,5.39-2.55,8.37-3.9,6.2-2.67,9.58-4c6.76-2.74,14.34-5.35,22.57-7.93L566,203.1l3.25-.92,3.33-.84,6.81-1.68,7.06-1.51a296.22,296.22,0,0,1,30.37-4.62c2.65-.32,5.35-.48,8.06-.7l4.09-.3c1.37-.09,2.75-.13,4.13-.19l4.17-.17,2.1-.09h3.41l15.1-.06q-.32,10.23-.64,20.7c-.38,11.88-.83,23.48-1.33,34.67s-1,22-1.9,32.48a242.45,242.45,0,0,1-4.21,29.67,145,145,0,0,1-7.67,25.25c-6.15,15-14.14,25.73-20.52,32-.78.81-1.56,1.53-2.3,2.19s-1.42,1.3-2.09,1.84c-1.37,1.07-2.5,2-3.49,2.62C611.69,374.71,610.55,375.24,610.32,375Z"/><path class="cls-3" d="M536.8,302.08c.27-.92,4.91-1.42,12.1,1.08s16.34,8.44,23.89,17.63c7.7,9.19,13.34,20.94,17.24,31.83,2,5.45,3.56,10.7,4.92,15.49s2.48,9.14,3.36,13l.41,2.12c.28,1.37.69,3.39,1.22,6,1.1,5.1,2.66,12.41,5,20.9a168.67,168.67,0,0,0,10.26,27.8c1.1,2.46,2.47,4.76,3.76,7.18.65,1.22,1.43,2.32,2.14,3.5s1.42,2.39,2.26,3.47l2.43,3.39.3.43c0,.05.17.19.27.3l.32.35,1.27,1.37,2.54,2.76,2.53,2.74c.23.24.4.45.66.7l.77.77,1.53,1.52,6.09,6a5.48,5.48,0,0,1-.61,1l-.69,1-1.39,2-2.75,4-2.7,3.92L631.43,488l-2.49,3.52-1.24,1.75c-.24.34-.33.44-.48.65l-.43.56-3.43,4.46c-4.63,5.87-9.3,11.61-14,17a364.06,364.06,0,0,1-27.46,28.39A202.84,202.84,0,0,1,560,562.23c-5.69,3.91-9.42,5.61-10.32,4.65s1.06-4.54,5-10.07,9.82-13,16.6-22.07,14.5-19.55,22.18-31c3.86-5.7,7.67-11.66,11.46-17.7.93-1.52,1.86-3.05,2.8-4.57l.35-.57c.1-.17.28-.45.29-.49l.28-.54.53-1.05.52-1c.1-.2.11-.27.16-.38l.12-.3.21-.59.1-.28.05-.13c0-.05,0-.09,0-.12l-1.07-.71-.26-.16-.12-.08s-.13-.12-.2-.17l-.85-.77-.83-.75-.41-.37-.11-.09s0,0-.14-.14l-.44-.51c-1.17-1.37-2.34-2.72-3.51-4.08s-2.21-2.77-3.27-4.16-2.15-2.78-3.09-4.21c-1.87-2.87-3.83-5.67-5.41-8.54A186.1,186.1,0,0,1,576,419.4c-3.34-9.42-5.51-17.22-7-22.64-.72-2.71-1.29-4.83-1.67-6.27s-.56-2.21-.56-2.21c-1-4.25-1.79-9-2.5-14s-1.29-10.12-1.94-15.2-1.38-10.12-2.37-14.93c-.48-2.41-1-4.77-1.67-7.05s-1.31-4.47-2.11-6.59a63,63,0,0,0-12-20.23c-2.08-2.35-4-4.1-5.38-5.46S536.64,302.55,536.8,302.08Z"/><path class="cls-2" d="M323.43,251.25c-.13-.55,1.87-1.69,5.64-3.24,1.89-.78,4.22-1.66,7-2.52s5.87-1.89,9.39-2.75l5.53-1.38c1.92-.48,4-.85,6-1.28s4.26-.89,6.5-1.22l6.95-1.07a228.2,228.2,0,0,1,62.43,0c4.76.7,9.27,1.39,13.45,2.29,2.09.43,4.12.8,6,1.28l5.53,1.39c3.52.86,6.65,1.89,9.4,2.76,1.37.45,2.64.86,3.8,1.29s2.21.85,3.15,1.24c3.77,1.57,5.77,2.71,5.64,3.26s-2.45.72-6.48.51c-1,0-2.12-.12-3.33-.22l-3.95-.26c-2.83-.18-6-.54-9.57-.76l-5.53-.45c-1.92-.17-3.93-.25-6-.41-4.13-.34-8.56-.52-13.19-.81-9.29-.42-19.48-.74-30.17-.75s-20.88.37-30.17.8l-6.79.38c-2.21.09-4.34.31-6.41.43s-4.08.23-6,.41l-5.54.45c-3.54.21-6.73.57-9.57.75s-5.27.36-7.29.46C325.88,252,323.56,251.8,323.43,251.25Z"/><path class="cls-2" d="M193,375c-.23.27-1.37-.26-3.37-1.54-1-.64-2.12-1.55-3.49-2.62-.67-.54-1.34-1.17-2.09-1.84s-1.52-1.38-2.3-2.19c-6.38-6.29-14.37-17-20.52-32a145,145,0,0,1-7.67-25.25,242.45,242.45,0,0,1-4.21-29.67c-.9-10.44-1.39-21.3-1.9-32.48s-.95-22.79-1.33-34.67l-.64-20.7,15.09.06H164l2.1.09,4.17.17c1.38.06,2.76.1,4.13.19l4.09.3c2.71.22,5.41.38,8.06.7a296.22,296.22,0,0,1,30.37,4.62l7.06,1.51,6.81,1.68,3.33.84,3.25.92,6.33,1.81c8.23,2.58,15.81,5.19,22.57,7.93,3.38,1.36,6.6,2.65,9.57,4s5.81,2.58,8.38,3.9,5,2.47,7.15,3.64,4.11,2.3,5.86,3.3,3.28,1.95,4.58,2.81,2.38,1.6,3.25,2.24c1.72,1.26,2.54,2.07,2.39,2.37s-1.31.15-3.36-.41c-1-.28-2.27-.67-3.73-1.15s-3.13-1.07-5-1.68-4-1.33-6.27-2.12l-7.48-2.44c-2.67-.91-5.57-1.74-8.62-2.68s-6.31-1.86-9.72-2.82c-6.81-1.94-14.36-3.77-22.48-5.61l-6.23-1.28-3.19-.66-3.25-.58-6.65-1.19-6.86-1c-9.28-1.32-19.06-2.52-29.27-3.14-2.55-.23-5.13-.3-7.72-.44l-3.92-.19c-1.31-.06-2.62-.06-3.94-.09l-4-.09-2,0H163l-1.51.05,0,0h0l0,1.44.11,3.19c.38,11.88.68,23.48.9,34.69s.3,22,.67,32.1,1.07,19.63,2.26,28.42c.59,4.4,1.32,8.62,2.17,12.62s1.79,7.83,2.88,11.41a117,117,0,0,0,14.9,32.28C190.2,370.8,193.54,374.36,193,375Z"/><path class="cls-3" d="M266.52,302.08c.17.5-.61,1.46-2,2.78s-3.33,3.18-5.44,5.55a63.63,63.63,0,0,0-12,20.43,93.62,93.62,0,0,0-3.75,13.73c-1,4.84-1.7,9.87-2.35,14.94s-1.23,10.15-1.92,15.06-1.51,9.61-2.44,13.71l-.56,2.21c-.38,1.44-.95,3.56-1.67,6.27-1.53,5.42-3.7,13.22-7,22.64a186.1,186.1,0,0,1-14.59,31.86c-1.59,2.87-3.54,5.67-5.41,8.54-.94,1.43-2.06,2.8-3.09,4.21s-2.07,2.83-3.27,4.16l-3.51,4.08-.45.51a.83.83,0,0,1-.14.14l-.1.09-.41.37-.83.75-.85.77c-.07.05-.16.15-.2.17l-.12.08-.26.16L193,476c-.08,0-.05.07,0,.12l0,.13.1.28.21.59.12.3a2.68,2.68,0,0,0,.16.38l.52,1,.53,1.05.28.54s.19.32.29.49l.35.57,2.8,4.57c3.78,6,7.6,12,11.46,17.7,7.68,11.45,15.4,22,22.17,31s12.67,16.55,16.61,22.07,5.93,9.08,5,10.07-4.63-.74-10.32-4.65a203.78,203.78,0,0,1-21.87-17.89A365.9,365.9,0,0,1,194,516c-4.74-5.4-9.41-11.14-14-17l-3.43-4.46-.43-.56c-.15-.21-.24-.31-.48-.65l-1.24-1.75L171.89,488l-2.52-3.57-2.7-3.92-2.75-4-1.39-2-.69-1a5.48,5.48,0,0,1-.61-1l6.08-6,1.54-1.52.77-.77c.26-.25.43-.46.65-.7l2.54-2.74,2.54-2.76,1.27-1.37.32-.35c.1-.11.24-.25.27-.3l.3-.43,2.42-3.39c.84-1.08,1.53-2.31,2.27-3.47s1.49-2.28,2.14-3.5c1.29-2.42,2.66-4.72,3.76-7.18a167.67,167.67,0,0,0,10.25-27.8c2.37-8.49,3.93-15.8,5-20.9l1.22-6,.41-2.12c.91-4,2.07-8.54,3.45-13.38s3-10.2,5-15.68c4-11,9.69-22.64,17.43-31.69s16.72-14.88,23.74-17.25S266.26,301.22,266.52,302.08Z"/><path class="cls-4" d="M310.37,588.51c.26-1.25,3.11-2.22,7.93-2.83,1.21-.15,2.54-.28,4-.39s3-.25,4.69-.34c3.35-.22,7.11-.24,11.26-.4q3.11-.07,6.47-.09c2.24,0,4.58-.08,7-.08s4.88,0,7.44,0,5.17,0,7.85,0c10.73,0,22.43,0,34.71.06h34.69c5.36-.06,10.48.05,15.28,0l7,.08c2.24,0,4.4,0,6.47.09,4.14.15,7.9.17,11.25.38,1.67.08,3.23.22,4.68.33s2.77.23,4,.38c4.82.59,7.67,1.55,7.94,2.8s-1.92,3.24-6.22,5.72c-1.07.61-2.28,1.26-3.61,1.93s-2.8,1.3-4.38,2c-3.17,1.33-6.81,2.83-10.91,4.12-2,.67-4.2,1.35-6.45,2s-4.62,1.25-7.07,1.87c-4.91,1.28-10.21,2.3-15.81,3.29a222.93,222.93,0,0,1-73.68-.07c-2.8-.49-5.52-1-8.16-1.53s-5.18-1.17-7.63-1.76-4.82-1.18-7.07-1.87-4.41-1.35-6.45-2c-4.1-1.29-7.73-2.78-10.91-4.1-1.58-.68-3.05-1.31-4.38-2s-2.54-1.31-3.62-1.93C312.3,591.75,310.1,589.76,310.37,588.51Z"/></g></svg>